<svg width="578" height="355" viewBox="0 0 578 355" fill="none" xmlns="http://www.w3.org/2000/svg">
<path fill-rule="evenodd" clip-rule="evenodd" d="M685.95 394.309L686 397.64L685.982 400.971L685.896 404.302L685.744 407.631L685.526 410.957L685.244 414.278L684.898 417.595L684.491 420.906L684.022 424.21L683.494 427.507L682.907 430.794L682.263 434.073L681.562 437.341L680.806 440.598L679.997 443.844L679.134 447.077L678.219 450.298L677.251 453.504L676.231 456.697L675.159 459.874L674.034 463.034L672.855 466.177L671.621 469.302L670.332 472.407L668.985 475.492L667.581 478.554L666.118 481.593L664.595 484.606L663.01 487.594L661.362 490.553L659.651 493.482L657.875 496.381L656.034 499.246L654.128 502.077L652.155 504.872L650.117 507.629L648.013 510.347L645.842 513.024L643.607 515.659L641.306 518.25L638.941 520.796L636.512 523.295L634.021 525.746L631.467 528.148L628.852 530.499L626.177 532.799L623.443 535.045L620.652 537.237L617.805 539.374L614.904 541.454L611.95 543.477L608.946 545.443L605.892 547.35L602.792 549.197L599.648 550.986L596.461 552.714L593.234 554.383L589.971 555.991L586.673 557.54L583.343 559.028L579.983 560.458L576.598 561.828L573.188 563.14L569.758 564.394L566.31 565.592L562.846 566.733L559.37 567.82L555.884 568.853L552.391 569.833L548.894 570.762L545.395 571.641L541.896 572.471L538.4 573.255L534.91 573.993L531.428 574.688L527.955 575.341L524.495 575.953L521.048 576.527L517.617 577.064L514.203 577.567L510.809 578.036L507.435 578.474L504.084 578.883L500.756 579.264L497.452 579.62L494.174 579.952L490.923 580.263L487.7 580.553L484.505 580.825L481.338 581.081L478.202 581.322L475.095 581.55L472.018 581.767L468.972 581.975L465.957 582.174L462.972 582.368L460.017 582.556L457.093 582.741L454.199 582.924L451.335 583.106L448.5 583.288L445.694 583.472L442.916 583.658L440.166 583.848L437.441 584.041L434.743 584.239L432.069 584.442L429.419 584.65L426.791 584.864L424.185 585.083L421.6 585.308L419.034 585.539L416.486 585.774L413.955 586.015L411.44 586.261L408.939 586.509L406.451 586.759L403.975 587.009L401.508 587.257L399.051 587.499L396.6 587.733L394.156 587.957L391.716 588.167L389.28 588.36L386.847 588.533L384.417 588.684L381.988 588.808L379.561 588.904L377.135 588.969L374.711 589L372.289 588.995L369.869 588.953L367.452 588.872L365.038 588.752L362.628 588.591L360.224 588.389L357.825 588.145L355.433 587.861L353.049 587.535L350.674 587.168L348.309 586.761L345.954 586.314L343.611 585.828L341.28 585.305L338.962 584.745L336.659 584.15L334.371 583.522L332.098 582.862L329.841 582.173L327.601 581.455L325.377 580.712L323.171 579.947L320.983 579.16L318.812 578.356L316.658 577.536L314.522 576.704L312.402 575.862L310.299 575.013L308.212 574.161L306.139 573.306L304.081 572.453L302.036 571.604L300.003 570.762L297.981 569.929L295.969 569.107L293.965 568.299L291.968 567.507L289.976 566.733L287.988 565.978L286.002 565.244L284.017 564.532L282.03 563.843L280.04 563.179L278.047 562.54L276.047 561.926L274.039 561.338L272.022 560.776L269.994 560.239L267.955 559.727L265.902 559.24L263.834 558.777L261.751 558.337L259.65 557.918L257.532 557.52L255.395 557.141L253.239 556.78L251.063 556.435L248.867 556.103L246.65 555.785L244.412 555.477L242.152 555.177L239.871 554.884L237.569 554.595L235.246 554.309L232.902 554.024L230.538 553.737L228.153 553.446L225.749 553.151L223.326 552.848L220.884 552.536L218.425 552.212L215.948 551.876L213.456 551.526L210.948 551.159L208.426 550.774L205.891 550.369L203.343 549.944L200.784 549.496L198.215 549.024L195.636 548.528L193.048 548.006L190.453 547.457L187.852 546.88L185.244 546.275L182.632 545.641L180.015 544.978L177.394 544.284L174.77 543.56L172.144 542.805L169.516 542.019L166.888 541.201L164.259 540.351L161.63 539.469L159.003 538.555L156.378 537.607L153.756 536.625L151.139 535.61L148.527 534.559L145.923 533.474L143.328 532.351L140.744 531.192L138.173 529.995L135.618 528.758L133.08 527.482L130.563 526.165L128.067 524.808L125.596 523.409L123.151 521.968L120.734 520.486L118.346 518.962L115.99 517.397L113.667 515.79L111.378 514.143L109.125 512.454L106.908 510.726L104.728 508.959L102.587 507.153L100.485 505.31L98.4226 503.429L96.3997 501.513L94.4167 499.561L92.4738 497.576L90.5708 495.558L88.7074 493.508L86.8831 491.428L85.0974 489.317L83.3496 487.179L81.6386 485.013L79.9635 482.822L78.3232 480.605L76.7162 478.364L75.1413 476.101L73.5967 473.815L72.081 471.509L70.5924 469.183L69.129 466.837L67.6891 464.473L66.2706 462.092L64.8716 459.693L63.4902 457.278L62.1242 454.847L60.7718 452.401L59.4309 449.938L58.0997 447.461L56.7762 444.968L55.4587 442.461L54.1453 439.938L52.8344 437.4L51.5246 434.846L50.2143 432.277L48.9024 429.691L47.5875 427.088L46.2689 424.468L44.9455 421.83L43.6167 419.173L42.2821 416.498L40.9413 413.802L39.5942 411.086L38.2408 408.348L36.8813 405.588L35.5162 402.805L34.1461 399.998L32.7718 397.166L31.3942 394.309L30.0146 391.426L28.6342 388.516L27.2546 385.578L25.8774 382.613L24.5046 379.619L23.1381 376.595L21.7802 373.543L20.4331 370.46L19.0994 367.348L17.7818 364.205L16.4829 361.032L15.2056 357.829L13.9529 354.595L12.7279 351.332L11.5338 348.04L10.3737 344.719L9.25132 341.37L8.17056 337.993L7.13559 334.59L6.15084 331.162L5.2209 327.711L4.35052 324.238L3.54456 320.744L2.80793 317.233L2.14561 313.706L1.56254 310.166L1.06367 306.615L0.653882 303.056L0.337971 299.493L0.120649 295.929L0.00650581 292.366L0 288.809L0.105447 285.261L0.32701 281.726L0.66869 278.208L1.13429 274.712L1.72729 271.241L2.45081 267.8L3.3076 264.394L4.29999 261.026L5.4299 257.701L6.69887 254.424L8.10797 251.198L9.65786 248.028L11.3487 244.919L13.1803 241.874L15.1518 238.896L17.2621 235.99L19.5096 233.16L21.8923 230.408L24.4078 227.738L27.0535 225.153L29.8262 222.655L32.7225 220.247L35.7387 217.932L38.8708 215.711L42.1144 213.586L45.4651 211.559L48.9179 209.631L52.4678 207.803L56.1097 206.075L59.8379 204.448L63.647 202.922L67.5312 201.497L71.4846 200.173L75.5012 198.947L79.5749 197.821L83.6997 196.791L87.8693 195.856L92.0777 195.015L96.3187 194.265L100.586 193.603L104.874 193.027L109.177 192.534L113.488 192.121L117.802 191.783L122.113 191.519L126.417 191.322L130.707 191.191L134.979 191.12L139.228 191.105L143.45 191.143L147.64 191.228L151.795 191.356L155.911 191.523L159.984 191.724L164.011 191.955L167.99 192.212L171.918 192.489L175.794 192.784L179.615 193.091L183.379 193.407L187.087 193.727L190.736 194.049L194.328 194.369L197.86 194.684L201.334 194.99L204.749 195.284L208.107 195.565L211.407 195.83L214.652 196.076L217.843 196.303L220.98 196.509L224.066 196.691L227.102 196.85L230.091 196.985L233.033 197.094L235.932 197.178L238.789 197.237L241.606 197.27L244.387 197.279L247.133 197.263L249.846 197.224L252.529 197.164L255.183 197.081L257.812 196.979L260.416 196.855L262.998 196.712L265.558 196.549L268.099 196.365L270.621 196.161L273.127 195.936L275.616 195.689L278.092 195.419L280.554 195.126L283.005 194.807L285.444 194.463L287.874 194.09L290.296 193.687L292.711 193.252L295.12 192.784L297.525 192.278L299.927 191.732L302.328 191.144L304.729 190.51L307.132 189.828L309.539 189.095L311.953 188.309L314.376 187.468L316.809 186.57L319.256 185.614L321.719 184.6L324.201 183.526L326.704 182.391L329.232 181.198L331.786 179.945L334.371 178.633L336.987 177.264L339.638 175.84L342.327 174.362L345.056 172.832L347.827 171.254L350.643 169.629L353.505 167.962L356.416 166.255L359.377 164.513L362.391 162.74L365.457 160.939L368.579 159.116L371.755 157.275L374.988 155.421L378.277 153.56L381.623 151.696L385.026 149.836L388.485 147.985L392 146.149L395.57 144.333L399.193 142.544L402.868 140.787L406.594 139.069L410.369 137.395L414.189 135.771L418.053 134.204L421.958 132.698L425.901 131.261L429.877 129.897L433.885 128.611L437.92 127.41L441.978 126.298L446.054 125.279L450.146 124.359L454.247 123.542L458.354 122.832L462.462 122.232L466.566 121.747L470.661 121.378L474.742 121.129L478.805 121.003L482.844 121L486.855 121.123L490.833 121.373L494.773 121.751L498.67 122.257L502.521 122.89L506.322 123.652L510.066 124.54L513.753 125.554L517.376 126.692L520.934 127.952L524.422 129.333L527.839 130.83L531.181 132.442L534.446 134.166L537.632 135.997L540.737 137.933L543.76 139.97L546.7 142.103L549.556 144.329L552.327 146.642L555.014 149.039L557.616 151.515L560.134 154.064L562.57 156.682L564.925 159.364L567.2 162.103L569.399 164.894L571.525 167.731L573.582 170.609L575.572 173.522L577.501 176.463L579.373 179.427L581.193 182.41L582.965 185.405L584.695 188.409L586.387 191.416L588.047 194.422L589.68 197.424L591.29 200.419L592.883 203.403L594.461 206.374L596.031 209.33L597.594 212.269L599.155 215.191L600.716 218.095L602.281 220.98L603.853 223.845L605.434 226.691L607.027 229.518L608.633 232.325L610.254 235.114L611.893 237.886L613.55 240.64L615.227 243.379L616.924 246.104L618.642 248.816L620.382 251.516L622.142 254.207L623.922 256.889L625.723 259.565L627.542 262.238L629.378 264.908L631.231 267.577L633.097 270.249L634.975 272.924L636.863 275.605L638.757 278.294L640.655 280.993L642.554 283.703L644.451 286.426L646.343 289.164L648.226 291.919L650.097 294.691L651.952 297.483L653.787 300.294L655.601 303.127L657.387 305.982L659.144 308.86L660.868 311.761L662.555 314.686L664.202 317.635L665.806 320.609L667.364 323.606L668.873 326.628L670.331 329.673L671.733 332.742L673.08 335.833L674.367 338.947L675.593 342.083L676.756 345.238L677.854 348.414L678.887 351.609L679.852 354.821L680.749 358.049L681.576 361.294L682.333 364.552L683.019 367.823L683.634 371.106L684.178 374.4L684.651 377.703L685.052 381.013L685.382 384.33L685.642 387.653L685.831 390.979L685.95 394.309Z" fill="#2984E4" fill-opacity="0.14"/>
<path fill-rule="evenodd" clip-rule="evenodd" d="M794.947 297.253L795 300.875L794.981 304.499L794.89 308.121L794.728 311.742L794.496 315.359L794.195 318.972L793.828 322.579L793.394 326.18L792.895 329.774L792.333 333.359L791.708 336.934L791.023 340.5L790.277 344.054L789.473 347.597L788.612 351.127L787.694 354.644L786.72 358.146L785.69 361.634L784.605 365.106L783.464 368.561L782.266 371.999L781.011 375.417L779.699 378.816L778.327 382.193L776.894 385.548L775.4 388.878L773.843 392.183L772.222 395.461L770.535 398.71L768.782 401.928L766.961 405.115L765.071 408.267L763.112 411.383L761.084 414.462L758.985 417.502L756.815 420.5L754.576 423.456L752.267 426.368L749.888 429.234L747.44 432.052L744.923 434.821L742.338 437.539L739.687 440.205L736.969 442.817L734.186 445.374L731.34 447.875L728.431 450.318L725.461 452.702L722.431 455.026L719.344 457.289L716.201 459.489L713.003 461.627L709.754 463.701L706.455 465.711L703.109 467.655L699.718 469.535L696.284 471.35L692.812 473.099L689.302 474.783L685.758 476.403L682.184 477.957L678.581 479.447L674.953 480.874L671.302 482.239L667.633 483.541L663.947 484.782L660.248 485.964L656.539 487.087L652.822 488.154L649.1 489.164L645.376 490.12L641.653 491.023L637.933 491.876L634.219 492.679L630.514 493.434L626.818 494.144L623.136 494.81L619.468 495.434L615.817 496.019L612.184 496.565L608.572 497.075L604.982 497.552L601.416 497.997L597.874 498.411L594.359 498.798L590.871 499.16L587.411 499.497L583.981 499.813L580.581 500.109L577.211 500.387L573.873 500.649L570.567 500.898L567.293 501.134L564.052 501.359L560.843 501.577L557.667 501.787L554.523 501.992L551.411 502.193L548.332 502.392L545.284 502.59L542.267 502.788L539.281 502.988L536.325 503.19L533.398 503.397L530.499 503.607L527.627 503.822L524.782 504.043L521.962 504.269L519.166 504.502L516.392 504.74L513.641 504.985L510.91 505.235L508.199 505.492L505.506 505.754L502.829 506.021L500.168 506.291L497.521 506.563L494.886 506.835L492.261 507.104L489.646 507.367L487.038 507.622L484.437 507.865L481.841 508.094L479.248 508.304L476.659 508.492L474.073 508.656L471.489 508.792L468.906 508.896L466.325 508.966L463.745 509L461.168 508.995L458.592 508.949L456.02 508.861L453.451 508.73L450.887 508.555L448.328 508.335L445.776 508.071L443.231 507.761L440.694 507.407L438.166 507.008L435.649 506.565L433.143 506.079L430.65 505.551L428.169 504.981L425.703 504.373L423.252 503.726L420.817 503.042L418.398 502.325L415.997 501.574L413.613 500.794L411.247 499.986L408.9 499.154L406.571 498.298L404.26 497.423L401.969 496.532L399.695 495.627L397.44 494.711L395.202 493.788L392.98 492.861L390.775 491.931L388.585 491.004L386.409 490.08L384.246 489.164L382.094 488.258L379.953 487.365L377.82 486.486L375.695 485.624L373.575 484.782L371.46 483.961L369.346 483.163L367.233 482.388L365.119 481.639L363.002 480.917L360.88 480.222L358.752 479.554L356.616 478.915L354.469 478.303L352.312 477.719L350.141 477.163L347.957 476.633L345.756 476.129L343.539 475.65L341.304 475.195L339.05 474.762L336.777 474.35L334.482 473.957L332.167 473.582L329.829 473.222L327.47 472.875L325.088 472.54L322.684 472.214L320.257 471.895L317.807 471.581L315.335 471.27L312.84 470.96L310.324 470.648L307.787 470.332L305.228 470.01L302.65 469.681L300.052 469.341L297.434 468.989L294.799 468.624L292.147 468.243L289.478 467.843L286.795 467.425L284.097 466.985L281.386 466.522L278.662 466.035L275.928 465.522L273.184 464.982L270.431 464.414L267.669 463.817L264.901 463.19L262.126 462.532L259.346 461.843L256.561 461.121L253.772 460.367L250.98 459.579L248.186 458.758L245.389 457.903L242.592 457.013L239.794 456.089L236.997 455.13L234.201 454.135L231.408 453.104L228.618 452.037L225.833 450.932L223.054 449.79L220.283 448.609L217.521 447.389L214.771 446.128L212.035 444.825L209.316 443.481L206.616 442.093L203.937 440.661L201.282 439.184L198.652 437.662L196.05 436.096L193.478 434.484L190.937 432.827L188.43 431.124L185.958 429.377L183.522 427.585L181.124 425.749L178.765 423.869L176.446 421.947L174.167 419.983L171.93 417.978L169.735 415.933L167.583 413.848L165.473 411.726L163.405 409.567L161.38 407.372L159.397 405.142L157.456 402.88L155.556 400.585L153.696 398.259L151.875 395.903L150.092 393.52L148.347 391.109L146.637 388.672L144.961 386.21L143.317 383.724L141.704 381.216L140.12 378.686L138.563 376.135L137.031 373.564L135.521 370.974L134.032 368.365L132.562 365.739L131.109 363.095L129.67 360.433L128.243 357.756L126.826 355.061L125.418 352.35L124.016 349.623L122.618 346.879L121.223 344.119L119.829 341.341L118.435 338.546L117.039 335.734L115.64 332.903L114.237 330.054L112.828 327.185L111.414 324.296L109.994 321.385L108.567 318.454L107.134 315.499L105.694 312.522L104.247 309.52L102.794 306.493L101.336 303.44L99.8738 300.36L98.4079 297.253L96.9397 294.117L95.4708 290.952L94.0027 287.757L92.5372 284.532L91.0763 281.275L89.6222 277.987L88.1771 274.667L86.7437 271.315L85.3245 267.929L83.9223 264.511L82.5401 261.06L81.1809 257.576L79.8479 254.06L78.5443 250.511L77.2735 246.93L76.0391 243.318L74.8447 239.676L73.6946 236.003L72.5933 232.302L71.5454 228.574L70.5558 224.82L69.6296 221.043L68.7719 217.243L67.988 213.424L67.2832 209.588L66.6628 205.738L66.1319 201.876L65.6958 198.006L65.3596 194.13L65.1284 190.253L65.0069 186.379L65 182.51L65.1122 178.651L65.348 174.806L65.7116 170.981L66.207 167.178L66.8381 163.403L67.608 159.661L68.5197 155.956L69.5758 152.293L70.7782 148.677L72.1285 145.113L73.628 141.604L75.2773 138.157L77.0766 134.775L79.0257 131.463L81.1237 128.225L83.3693 125.064L85.761 121.986L88.2965 118.993L90.9734 116.089L93.7887 113.277L96.7392 110.561L99.8213 107.942L103.031 105.424L106.364 103.009L109.816 100.698L113.381 98.4929L117.055 96.3958L120.833 94.4073L124.709 92.5282L128.676 90.7588L132.729 89.0994L136.863 87.5495L141.07 86.1088L145.344 84.7762L149.679 83.5507L154.068 82.4306L158.505 81.4141L162.984 80.4992L167.497 79.6832L172.038 78.9636L176.601 78.3374L181.179 77.8011L185.767 77.3514L190.358 76.9845L194.945 76.6964L199.525 76.483L204.09 76.34L208.637 76.2628L213.158 76.2469L217.651 76.2877L222.11 76.3802L226.531 76.5197L230.911 76.7014L235.245 76.9202L239.531 77.1716L243.765 77.4505L247.945 77.7524L252.069 78.0725L256.135 78.4065L260.141 78.75L264.087 79.0989L267.97 79.4491L271.792 79.7969L275.551 80.1388L279.247 80.4715L282.882 80.7919L286.455 81.0974L289.967 81.3854L293.42 81.6537L296.815 81.9004L300.154 82.1237L303.438 82.3224L306.669 82.4953L309.849 82.6415L312.98 82.7604L316.064 82.8518L319.105 82.9155L322.103 82.9517L325.062 82.9611L327.984 82.9443L330.871 82.9022L333.726 82.8361L336.551 82.7467L339.348 82.6348L342.119 82.5007L344.866 82.3449L347.591 82.1673L350.295 81.9676L352.979 81.7456L355.645 81.5007L358.294 81.232L360.929 80.9388L363.549 80.6197L366.156 80.2734L368.753 79.8984L371.339 79.493L373.916 79.055L376.485 78.5823L379.049 78.0723L381.608 77.5222L384.164 76.929L386.719 76.2893L389.274 75.5999L391.831 74.858L394.393 74.0607L396.962 73.2057L399.54 72.2909L402.129 71.3146L404.733 70.2751L407.354 69.1716L409.995 68.0032L412.659 66.7698L415.349 65.4714L418.067 64.1085L420.817 62.6821L423.601 61.1935L426.423 59.6444L429.284 58.0368L432.188 56.3732L435.137 54.6564L438.133 52.8896L441.179 51.0762L444.276 49.2201L447.428 47.3253L450.634 45.3964L453.898 43.438L457.219 41.455L460.6 39.4528L464.04 37.4367L467.54 35.4123L471.101 33.3856L474.722 31.3626L478.403 29.3493L482.143 27.352L485.941 25.3772L489.797 23.4312L493.708 21.5205L497.673 19.6516L501.69 17.831L505.755 16.0652L509.867 14.3605L514.022 12.7233L518.218 11.1599L522.45 9.67619L526.714 8.27816L531.008 6.97151L535.326 5.76174L539.664 4.6541L544.018 3.65358L548.382 2.7649L552.753 1.99242L557.124 1.34023L561.491 0.812017L565.849 0.411135L570.192 0.140536L574.515 0.00277618L578.813 0L583.082 0.133931L587.315 0.405862L591.507 0.816653L595.655 1.36673L599.753 2.05607L603.797 2.88423L607.782 3.85035L611.705 4.95312L615.561 6.19086L619.346 7.56149L623.058 9.06258L626.694 10.6913L630.25 12.4446L633.725 14.3191L637.115 16.3112L640.42 18.4169L643.637 20.632L646.765 22.9522L649.804 25.3728L652.753 27.8889L655.612 30.4958L658.382 33.1882L661.061 35.9608L663.653 38.8083L666.159 41.7246L668.58 44.7037L670.921 47.7394L673.183 50.8254L675.371 53.9553L677.489 57.1228L679.542 60.3217L681.534 63.5461L683.47 66.7899L685.356 70.0478L687.197 73.3144L688.998 76.5849L690.764 79.8547L692.502 83.1198L694.216 86.3765L695.91 89.6217L697.59 92.8529L699.26 96.0679L700.924 99.2651L702.585 102.443L704.246 105.601L705.912 108.739L707.584 111.855L709.267 114.95L710.961 118.025L712.67 121.078L714.396 124.112L716.14 127.126L717.903 130.122L719.688 133.101L721.494 136.064L723.322 139.013L725.173 141.95L727.046 144.876L728.941 147.794L730.856 150.705L732.792 153.611L734.747 156.515L736.718 159.418L738.704 162.324L740.703 165.234L742.711 168.15L744.727 171.074L746.747 174.009L748.768 176.957L750.786 179.919L752.799 182.897L754.803 185.893L756.794 188.908L758.768 191.944L760.721 195.002L762.651 198.083L764.552 201.188L766.422 204.318L768.256 207.473L770.051 210.655L771.804 213.862L773.511 217.096L775.169 220.356L776.775 223.642L778.325 226.954L779.818 230.292L781.251 233.654L782.621 237.041L783.925 240.451L785.163 243.883L786.332 247.337L787.431 250.811L788.458 254.305L789.412 257.817L790.292 261.345L791.098 264.889L791.828 268.447L792.483 272.017L793.062 275.6L793.564 279.192L793.991 282.792L794.343 286.4L794.619 290.014L794.82 293.632L794.947 297.253Z" fill="#2984E4" fill-opacity="0.2"/>
</svg>
