<svg width="25" height="20" viewBox="0 0 25 20" fill="none" xmlns="http://www.w3.org/2000/svg">
<path id="Vector" d="M8.53613 15.6347L22.2157 0.534521C22.5385 0.178174 22.9221 0 23.3665 0C23.8109 0 24.194 0.178174 24.5158 0.534521C24.8386 0.890869 25 1.31433 25 1.8049C25 2.29547 24.8386 2.71834 24.5158 3.0735L9.666 19.4655C9.34318 19.8218 8.96656 20 8.53613 20C8.1057 20 7.72908 19.8218 7.40626 19.4655L0.465607 11.804C0.142786 11.4477 -0.0121679 11.0242 0.000744971 10.5336C0.0136578 10.0431 0.182062 9.62019 0.505959 9.26503C0.82878 8.90869 1.2124 8.73051 1.65682 8.73051C2.10123 8.73051 2.48431 8.90869 2.80606 9.26503L8.53613 15.6347Z" fill="#2DE429"/>
</svg>
