<svg width="17" height="17" viewBox="0 0 17 17" fill="none" xmlns="http://www.w3.org/2000/svg">
<g id="carbon:view">
<path id="Vector" d="M16.4366 8.31938C15.8118 6.70313 14.7271 5.30539 13.3165 4.29892C11.9059 3.29245 10.2314 2.72137 8.49977 2.65625C6.76817 2.72137 5.09361 3.29245 3.68304 4.29892C2.27247 5.30539 1.18773 6.70313 0.562899 8.31938C0.5207 8.43609 0.5207 8.56391 0.562899 8.68062C1.18773 10.2969 2.27247 11.6946 3.68304 12.7011C5.09361 13.7075 6.76817 14.2786 8.49977 14.3438C10.2314 14.2786 11.9059 13.7075 13.3165 12.7011C14.7271 11.6946 15.8118 10.2969 16.4366 8.68062C16.4788 8.56391 16.4788 8.43609 16.4366 8.31938ZM8.49977 13.2812C5.68415 13.2812 2.70915 11.1934 1.63071 8.5C2.70915 5.80656 5.68415 3.71875 8.49977 3.71875C11.3154 3.71875 14.2904 5.80656 15.3688 8.5C14.2904 11.1934 11.3154 13.2812 8.49977 13.2812Z" fill="#D5D5D5"/>
<path id="Vector_2" d="M8.5 5.3125C7.86957 5.3125 7.2533 5.49944 6.72912 5.84969C6.20494 6.19994 5.79639 6.69776 5.55514 7.2802C5.31388 7.86264 5.25076 8.50354 5.37375 9.12185C5.49674 9.74016 5.80032 10.3081 6.2461 10.7539C6.69188 11.1997 7.25984 11.5033 7.87815 11.6263C8.49647 11.7492 9.13737 11.6861 9.7198 11.4449C10.3022 11.2036 10.8001 10.7951 11.1503 10.2709C11.5006 9.7467 11.6875 9.13043 11.6875 8.5C11.6875 7.65462 11.3517 6.84387 10.7539 6.2461C10.1561 5.64833 9.34538 5.3125 8.5 5.3125ZM8.5 10.625C8.07972 10.625 7.66887 10.5004 7.31941 10.2669C6.96996 10.0334 6.69759 9.7015 6.53676 9.3132C6.37592 8.92491 6.33384 8.49764 6.41583 8.08543C6.49783 7.67322 6.70021 7.29458 6.9974 6.9974C7.29459 6.70021 7.67322 6.49782 8.08543 6.41583C8.49764 6.33384 8.92491 6.37592 9.3132 6.53676C9.7015 6.69759 10.0334 6.96996 10.2669 7.31941C10.5004 7.66887 10.625 8.07971 10.625 8.5C10.625 9.06359 10.4011 9.60409 10.0026 10.0026C9.60409 10.4011 9.06359 10.625 8.5 10.625Z" fill="#D5D5D5"/>
</g>
</svg>
