<svg width="20" height="19" viewBox="0 0 20 19" fill="none" xmlns="http://www.w3.org/2000/svg">
<g id="uil:schedule">
<path id="Vector" d="M9.99984 11.0833C10.1647 11.0833 10.3258 11.0368 10.4628 10.9498C10.5999 10.8628 10.7067 10.7392 10.7697 10.5945C10.8328 10.4499 10.8493 10.2907 10.8172 10.1371C10.785 9.98357 10.7056 9.84251 10.5891 9.73179C10.4725 9.62108 10.3241 9.54568 10.1624 9.51513C10.0008 9.48458 9.83321 9.50026 9.68093 9.56018C9.52866 9.6201 9.39851 9.72157 9.30695 9.85176C9.21538 9.98195 9.1665 10.135 9.1665 10.2916C9.1665 10.5015 9.2543 10.7029 9.41058 10.8514C9.56686 10.9998 9.77882 11.0833 9.99984 11.0833ZM14.1665 11.0833C14.3313 11.0833 14.4924 11.0368 14.6295 10.9498C14.7665 10.8628 14.8733 10.7392 14.9364 10.5945C14.9995 10.4499 15.016 10.2907 14.9838 10.1371C14.9517 9.98357 14.8723 9.84251 14.7558 9.73179C14.6392 9.62108 14.4907 9.54568 14.3291 9.51513C14.1674 9.48458 13.9999 9.50026 13.8476 9.56018C13.6953 9.6201 13.5652 9.72157 13.4736 9.85176C13.382 9.98195 13.3332 10.135 13.3332 10.2916C13.3332 10.5015 13.421 10.7029 13.5772 10.8514C13.7335 10.9998 13.9455 11.0833 14.1665 11.0833ZM9.99984 14.2499C10.1647 14.2499 10.3258 14.2035 10.4628 14.1165C10.5999 14.0295 10.7067 13.9059 10.7697 13.7612C10.8328 13.6166 10.8493 13.4574 10.8172 13.3038C10.785 13.1502 10.7056 13.0092 10.5891 12.8985C10.4725 12.7877 10.3241 12.7123 10.1624 12.6818C10.0008 12.6513 9.83321 12.6669 9.68093 12.7268C9.52866 12.7868 9.39851 12.8882 9.30695 13.0184C9.21538 13.1486 9.1665 13.3017 9.1665 13.4583C9.1665 13.6682 9.2543 13.8696 9.41058 14.018C9.56686 14.1665 9.77882 14.2499 9.99984 14.2499ZM14.1665 14.2499C14.3313 14.2499 14.4924 14.2035 14.6295 14.1165C14.7665 14.0295 14.8733 13.9059 14.9364 13.7612C14.9995 13.6166 15.016 13.4574 14.9838 13.3038C14.9517 13.1502 14.8723 13.0092 14.7558 12.8985C14.6392 12.7877 14.4907 12.7123 14.3291 12.6818C14.1674 12.6513 13.9999 12.6669 13.8476 12.7268C13.6953 12.7868 13.5652 12.8882 13.4736 13.0184C13.382 13.1486 13.3332 13.3017 13.3332 13.4583C13.3332 13.6682 13.421 13.8696 13.5772 14.018C13.7335 14.1665 13.9455 14.2499 14.1665 14.2499ZM5.83317 11.0833C5.99799 11.0833 6.1591 11.0368 6.29615 10.9498C6.43319 10.8628 6.54 10.7392 6.60307 10.5945C6.66614 10.4499 6.68265 10.2907 6.65049 10.1371C6.61834 9.98357 6.53897 9.84251 6.42243 9.73179C6.30588 9.62108 6.1574 9.54568 5.99575 9.51513C5.8341 9.48458 5.66654 9.50026 5.51427 9.56018C5.362 9.6201 5.23185 9.72157 5.14028 9.85176C5.04871 9.98195 4.99984 10.135 4.99984 10.2916C4.99984 10.5015 5.08764 10.7029 5.24392 10.8514C5.4002 10.9998 5.61216 11.0833 5.83317 11.0833ZM15.8332 3.16659H14.9998V2.37492C14.9998 2.16496 14.912 1.96359 14.7558 1.81513C14.5995 1.66666 14.3875 1.58325 14.1665 1.58325C13.9455 1.58325 13.7335 1.66666 13.5772 1.81513C13.421 1.96359 13.3332 2.16496 13.3332 2.37492V3.16659H6.6665V2.37492C6.6665 2.16496 6.57871 1.96359 6.42243 1.81513C6.26615 1.66666 6.05418 1.58325 5.83317 1.58325C5.61216 1.58325 5.4002 1.66666 5.24392 1.81513C5.08764 1.96359 4.99984 2.16496 4.99984 2.37492V3.16659H4.1665C3.50346 3.16659 2.86758 3.41681 2.39874 3.86221C1.9299 4.30761 1.6665 4.9117 1.6665 5.54159V15.0416C1.6665 15.6715 1.9299 16.2756 2.39874 16.721C2.86758 17.1664 3.50346 17.4166 4.1665 17.4166H15.8332C16.4962 17.4166 17.1321 17.1664 17.6009 16.721C18.0698 16.2756 18.3332 15.6715 18.3332 15.0416V5.54159C18.3332 4.9117 18.0698 4.30761 17.6009 3.86221C17.1321 3.41681 16.4962 3.16659 15.8332 3.16659ZM16.6665 15.0416C16.6665 15.2515 16.5787 15.4529 16.4224 15.6014C16.2661 15.7498 16.0542 15.8333 15.8332 15.8333H4.1665C3.94549 15.8333 3.73353 15.7498 3.57725 15.6014C3.42097 15.4529 3.33317 15.2515 3.33317 15.0416V7.91659H16.6665V15.0416ZM16.6665 6.33325H3.33317V5.54159C3.33317 5.33162 3.42097 5.13026 3.57725 4.98179C3.73353 4.83333 3.94549 4.74992 4.1665 4.74992H15.8332C16.0542 4.74992 16.2661 4.83333 16.4224 4.98179C16.5787 5.13026 16.6665 5.33162 16.6665 5.54159V6.33325ZM5.83317 14.2499C5.99799 14.2499 6.1591 14.2035 6.29615 14.1165C6.43319 14.0295 6.54 13.9059 6.60307 13.7612C6.66614 13.6166 6.68265 13.4574 6.65049 13.3038C6.61834 13.1502 6.53897 13.0092 6.42243 12.8985C6.30588 12.7877 6.1574 12.7123 5.99575 12.6818C5.8341 12.6513 5.66654 12.6669 5.51427 12.7268C5.362 12.7868 5.23185 12.8882 5.14028 13.0184C5.04871 13.1486 4.99984 13.3017 4.99984 13.4583C4.99984 13.6682 5.08764 13.8696 5.24392 14.018C5.4002 14.1665 5.61216 14.2499 5.83317 14.2499Z" fill="#D5D5D5"/>
</g>
</svg>
