<svg width="27" height="27" viewBox="0 0 27 27" fill="none" xmlns="http://www.w3.org/2000/svg">
<g id="ep:warning">
<path id="Vector" d="M13.5 1.6875C16.6329 1.6875 19.6374 2.93203 21.8527 5.1473C24.068 7.36257 25.3125 10.3671 25.3125 13.5C25.3125 16.6329 24.068 19.6374 21.8527 21.8527C19.6374 24.068 16.6329 25.3125 13.5 25.3125C10.3671 25.3125 7.36257 24.068 5.1473 21.8527C2.93203 19.6374 1.6875 16.6329 1.6875 13.5C1.6875 10.3671 2.93203 7.36257 5.1473 5.1473C7.36257 2.93203 10.3671 1.6875 13.5 1.6875ZM13.5 23.625C16.1853 23.625 18.7607 22.5583 20.6595 20.6595C22.5583 18.7607 23.625 16.1853 23.625 13.5C23.625 10.8147 22.5583 8.23935 20.6595 6.34054C18.7607 4.44174 16.1853 3.375 13.5 3.375C10.8147 3.375 8.23935 4.44174 6.34054 6.34054C4.44174 8.23935 3.375 10.8147 3.375 13.5C3.375 16.1853 4.44174 18.7607 6.34054 20.6595C8.23935 22.5583 10.8147 23.625 13.5 23.625ZM14.7656 18.9844C14.7656 19.32 14.6323 19.642 14.3949 19.8793C14.1576 20.1167 13.8357 20.25 13.5 20.25C13.1643 20.25 12.8424 20.1167 12.6051 19.8793C12.3677 19.642 12.2344 19.32 12.2344 18.9844C12.2344 18.6487 12.3677 18.3268 12.6051 18.0894C12.8424 17.8521 13.1643 17.7188 13.5 17.7188C13.8357 17.7188 14.1576 17.8521 14.3949 18.0894C14.6323 18.3268 14.7656 18.6487 14.7656 18.9844ZM13.5 6.75C13.7238 6.75 13.9384 6.83889 14.0966 6.99713C14.2549 7.15536 14.3438 7.36997 14.3438 7.59375V15.1875C14.3438 15.4113 14.2549 15.6259 14.0966 15.7841C13.9384 15.9424 13.7238 16.0312 13.5 16.0312C13.2762 16.0312 13.0616 15.9424 12.9034 15.7841C12.7451 15.6259 12.6562 15.4113 12.6562 15.1875V7.59375C12.6562 7.36997 12.7451 7.15536 12.9034 6.99713C13.0616 6.83889 13.2762 6.75 13.5 6.75Z" fill="#E42929"/>
</g>
</svg>
