<svg width="23" height="27" viewBox="0 0 23 27" fill="none" xmlns="http://www.w3.org/2000/svg">
<path id="Vector" d="M8.69299 23.0006C8.6911 23.3924 8.76148 23.7808 8.90012 24.1437C9.03875 24.5065 9.24293 24.8366 9.50099 25.1151C9.75905 25.3936 10.0659 25.6151 10.4041 25.7669C10.7423 25.9188 11.1052 25.9979 11.4721 26C12.2129 26.004 12.925 25.6936 13.4516 25.1369C13.9782 24.5801 14.2762 23.8228 14.28 23.0314V23.0006M19.4741 19.0563V11.8647C19.4731 9.95037 18.8682 8.09231 17.757 6.59038C16.6459 5.08845 15.0934 4.03029 13.3501 3.5867V2.95467C13.3413 2.43306 13.1412 1.93597 12.7928 1.5704C12.4443 1.20483 11.9755 1 11.4871 1C10.9987 1 10.5298 1.20483 10.1814 1.5704C9.83296 1.93597 9.63282 2.43306 9.62406 2.95467V3.59376C7.88665 4.04239 6.34082 5.10179 5.23487 6.60178C4.12892 8.10178 3.52703 9.95531 3.52589 11.8647V19.0563L1 21.7545V23.0006H22V21.7545L19.4741 19.0563Z" stroke="#2984E4" stroke-linecap="round" stroke-linejoin="round"/>
</svg>
