<svg width="27" height="28" viewBox="0 0 27 28" fill="none" xmlns="http://www.w3.org/2000/svg">
<g id="ph:money-light">
<path id="Vector" d="M13.5 18.1562C14.2927 18.1562 15.0675 17.9125 15.7266 17.4558C16.3857 16.9991 16.8994 16.35 17.2027 15.5905C17.5061 14.8311 17.5854 13.9954 17.4308 13.1892C17.2762 12.3829 16.8945 11.6423 16.334 11.0611C15.7734 10.4798 15.0593 10.084 14.2819 9.92361C13.5044 9.76324 12.6986 9.84555 11.9663 10.1601C11.2339 10.4747 10.608 11.0074 10.1676 11.6909C9.72724 12.3744 9.49219 13.178 9.49219 14C9.49219 15.1023 9.91444 16.1595 10.666 16.9389C11.4177 17.7184 12.4371 18.1562 13.5 18.1562ZM13.5 11.1562C14.0424 11.1562 14.5725 11.323 15.0235 11.6355C15.4744 11.948 15.8259 12.3921 16.0335 12.9117C16.241 13.4314 16.2953 14.0032 16.1895 14.5548C16.0837 15.1064 15.8225 15.6131 15.439 16.0108C15.0555 16.4085 14.5669 16.6794 14.035 16.7891C13.503 16.8988 12.9517 16.8425 12.4506 16.6273C11.9495 16.412 11.5213 16.0476 11.22 15.5799C10.9186 15.1123 10.7578 14.5624 10.7578 14C10.7578 13.2458 11.0467 12.5225 11.561 11.9892C12.0752 11.4559 12.7727 11.1562 13.5 11.1562ZM25.3125 6.34375H1.6875C1.51967 6.34375 1.35871 6.41289 1.24003 6.53596C1.12136 6.65903 1.05469 6.82595 1.05469 7V21C1.05469 21.174 1.12136 21.341 1.24003 21.464C1.35871 21.5871 1.51967 21.6562 1.6875 21.6562H25.3125C25.4803 21.6562 25.6413 21.5871 25.76 21.464C25.8786 21.341 25.9453 21.174 25.9453 21V7C25.9453 6.82595 25.8786 6.65903 25.76 6.53596C25.6413 6.41289 25.4803 6.34375 25.3125 6.34375ZM2.32031 11.9022C3.3029 11.6311 4.199 11.0957 4.91796 10.3501C5.63692 9.60452 6.15321 8.67523 6.41461 7.65625H20.5854C20.8468 8.67523 21.3631 9.60452 22.082 10.3501C22.801 11.0957 23.6971 11.6311 24.6797 11.9022V16.0978C23.6971 16.3689 22.801 16.9043 22.082 17.6499C21.3631 18.3955 20.8468 19.3248 20.5854 20.3438H6.41461C6.15321 19.3248 5.63692 18.3955 4.91796 17.6499C4.199 16.9043 3.3029 16.3689 2.32031 16.0978V11.9022ZM24.6797 10.5317C24.0387 10.2995 23.4566 9.92038 22.9765 9.42252C22.4964 8.92467 22.1308 8.32093 21.9069 7.65625H24.6797V10.5317ZM5.09309 7.65625C4.86918 8.32093 4.50358 8.92467 4.0235 9.42252C3.54343 9.92038 2.96125 10.2995 2.32031 10.5317V7.65625H5.09309ZM2.32031 17.4683C2.96125 17.7005 3.54343 18.0796 4.0235 18.5775C4.50358 19.0753 4.86918 19.6791 5.09309 20.3438H2.32031V17.4683ZM21.9069 20.3438C22.1308 19.6791 22.4964 19.0753 22.9765 18.5775C23.4566 18.0796 24.0387 17.7005 24.6797 17.4683V20.3438H21.9069Z" fill="#2984E4"/>
</g>
</svg>
