<svg width="29" height="24" viewBox="0 0 29 24" fill="none" xmlns="http://www.w3.org/2000/svg">
<path d="M8.89572 15.3078C8.74015 15.3058 8.59032 15.3539 8.47918 15.4416C8.36803 15.5292 8.30469 15.6492 8.30309 15.7752C8.30148 15.9011 8.36174 16.0227 8.47061 16.1131C8.57948 16.2036 8.72804 16.2555 8.88361 16.2575L19.4421 16.3921C19.5976 16.3941 19.7475 16.346 19.8586 16.2583C19.9698 16.1707 20.0331 16.0507 20.0347 15.9248C20.0363 15.7988 19.9761 15.6772 19.8672 15.5868C19.7583 15.4963 19.6098 15.4444 19.4542 15.4424L8.89572 15.3078ZM8.27887 17.6746C8.28047 17.5487 8.34381 17.4287 8.45495 17.341C8.56609 17.2534 8.71593 17.2052 8.8715 17.2072L15.9105 17.297C16.066 17.299 16.2146 17.3509 16.3235 17.4414C16.4324 17.5318 16.4926 17.6534 16.491 17.7793C16.4894 17.9053 16.4261 18.0253 16.3149 18.1129C16.2038 18.2006 16.0539 18.2487 15.8984 18.2467L8.85939 18.1569C8.70382 18.155 8.55526 18.103 8.44639 18.0126C8.33752 17.9221 8.27726 17.8005 8.27887 17.6746Z" fill="#2984E4"/>
<path fill-rule="evenodd" clip-rule="evenodd" d="M12.4693 7.57146C12.4258 7.48438 12.3516 7.40951 12.2559 7.3563C12.1602 7.30308 12.0474 7.2739 11.9316 7.27242C11.8158 7.27094 11.7022 7.29724 11.6052 7.348C11.5082 7.39876 11.4321 7.4717 11.3864 7.55765L9.13707 11.7939C9.13349 11.8004 9.13008 11.8071 9.12685 11.8137L8.38087 13.2186C8.31949 13.3341 8.31742 13.4648 8.37512 13.582C8.43282 13.6993 8.54555 13.7934 8.68853 13.8437C8.8315 13.894 8.993 13.8964 9.1375 13.8503C9.282 13.8043 9.39766 13.7135 9.45903 13.598L10.0565 12.4729L13.6734 12.519L14.242 13.659C14.3004 13.776 14.4137 13.8697 14.557 13.9195C14.7003 13.9692 14.8618 13.9709 15.006 13.9243C15.1502 13.8776 15.2653 13.7864 15.326 13.6707C15.3867 13.5549 15.3879 13.4242 15.3295 13.3072L14.6196 11.8838C14.6165 11.877 14.6133 11.8703 14.6099 11.8637L12.4693 7.57146ZM11.9098 8.98201L13.1969 11.5631L10.5573 11.5294L11.9098 8.98201Z" fill="#2984E4"/>
<path d="M17.7611 10.1967C17.9166 10.1987 18.0652 10.2506 18.1741 10.341C18.2829 10.4315 18.3432 10.5531 18.3416 10.679L18.3295 11.6287L19.5026 11.6437C19.6582 11.6457 19.8068 11.6976 19.9156 11.7881C20.0245 11.8785 20.0848 12.0001 20.0832 12.126C20.0816 12.252 20.0182 12.372 19.9071 12.4596C19.7959 12.5473 19.6461 12.5954 19.4905 12.5934L18.3174 12.5785L18.3053 13.5282C18.3036 13.6541 18.2403 13.7741 18.1292 13.8618C18.018 13.9494 17.8682 13.9975 17.7126 13.9956C17.557 13.9936 17.4085 13.9416 17.2996 13.8512C17.1907 13.7607 17.1305 13.6392 17.1321 13.5132L17.1442 12.5635L15.971 12.5485C15.8155 12.5465 15.6669 12.4946 15.558 12.4042C15.4492 12.3137 15.3889 12.1921 15.3905 12.0662C15.3921 11.9402 15.4555 11.8203 15.5666 11.7326C15.6777 11.645 15.8276 11.5968 15.9831 11.5988L17.1563 11.6138L17.1684 10.664C17.17 10.5381 17.2334 10.4181 17.3445 10.3305C17.4557 10.2428 17.6055 10.1947 17.7611 10.1967Z" fill="#2984E4"/>
<path fill-rule="evenodd" clip-rule="evenodd" d="M22.49 7.40728L16.6908 2.10901L8.47871 2.00429C7.85643 1.99635 7.25708 2.18886 6.81251 2.53946C6.36795 2.89007 6.11459 3.37004 6.10816 3.87381L5.91438 19.0693C5.90796 19.5731 6.149 20.0594 6.58448 20.4212C7.01996 20.783 7.6142 20.9908 8.23649 20.9987L19.9681 21.1483C20.5904 21.1562 21.1897 20.9637 21.6343 20.6131C22.0789 20.2625 22.3322 19.7825 22.3387 19.2788L22.49 7.40728ZM16.0377 7.32499C16.036 7.45093 16.0963 7.5725 16.2052 7.66296C16.314 7.75342 16.4626 7.80535 16.6182 7.80733L21.3108 7.86717L21.1655 19.2638C21.1623 19.5157 21.0356 19.7557 20.8133 19.931C20.591 20.1063 20.2914 20.2025 19.9802 20.1986L8.2486 20.049C7.93746 20.045 7.64033 19.9411 7.42259 19.7602C7.20485 19.5793 7.08433 19.3362 7.08755 19.0843L7.28133 3.88877C7.28454 3.63688 7.41122 3.3969 7.6335 3.22159C7.85578 3.04629 8.15546 2.95004 8.4666 2.95401L16.0922 3.05125L16.0377 7.32499ZM20.3774 6.9054L17.2528 4.0506L17.2169 6.86509L20.3774 6.9054Z" fill="#2984E4"/>
</svg>
