<svg width="23" height="21" viewBox="0 0 23 21" fill="none" xmlns="http://www.w3.org/2000/svg">
<path id="Vector" d="M19.9333 10.1821C20.4125 10.4624 20.8398 10.7803 21.2151 11.1357C21.5905 11.4912 21.9139 11.8809 22.1854 12.3047C22.4569 12.7285 22.6566 13.1763 22.7844 13.6479C22.9122 14.1196 22.984 14.6016 23 15.0938C23 15.9072 22.8203 16.6729 22.4609 17.3906C22.1016 18.1084 21.6064 18.7339 20.9755 19.2671C20.3446 19.8003 19.6139 20.2207 18.7833 20.5283C17.9528 20.8359 17.0583 20.9932 16.1 21C15.3733 21 14.6705 20.9077 13.9917 20.7231C13.3128 20.5386 12.6899 20.272 12.1229 19.9233C11.5559 19.5747 11.0528 19.1577 10.6135 18.6724C10.1743 18.187 9.8349 17.6504 9.59531 17.0625H0V1.3125H3.06667V0H4.6V1.3125H15.3333V0H16.8667V1.3125H19.9333V10.1821ZM1.53333 2.625V5.25H18.4V2.625H16.8667V3.9375H15.3333V2.625H4.6V3.9375H3.06667V2.625H1.53333ZM9.23594 15.75C9.21198 15.5381 9.2 15.3193 9.2 15.0938C9.2 14.2803 9.37969 13.5146 9.73906 12.7969C10.0984 12.0791 10.5936 11.4536 11.2245 10.9204C11.8554 10.3872 12.5861 9.9668 13.4167 9.65918C14.2472 9.35156 15.1417 9.19434 16.1 9.1875C16.8986 9.1875 17.6653 9.30029 18.4 9.52588V6.5625H1.53333V15.75H9.23594ZM16.1 19.6875C16.8427 19.6875 17.5375 19.5679 18.1844 19.3286C18.8312 19.0894 19.3983 18.7612 19.8854 18.3442C20.3726 17.9272 20.7559 17.4419 21.0354 16.8882C21.3149 16.3345 21.4587 15.7363 21.4667 15.0938C21.4667 14.458 21.3269 13.8633 21.0474 13.3096C20.7679 12.7559 20.3845 12.2705 19.8974 11.8535C19.4102 11.4365 18.8432 11.1084 18.1964 10.8691C17.5495 10.6299 16.8507 10.5068 16.1 10.5C15.3573 10.5 14.6625 10.6196 14.0156 10.8589C13.3687 11.0981 12.8017 11.4263 12.3146 11.8433C11.8274 12.2603 11.4441 12.7456 11.1646 13.2993C10.8851 13.853 10.7413 14.4512 10.7333 15.0938C10.7333 15.7295 10.8731 16.3242 11.1526 16.8779C11.4321 17.4316 11.8155 17.917 12.3026 18.334C12.7898 18.751 13.3568 19.0791 14.0036 19.3184C14.6505 19.5576 15.3493 19.6807 16.1 19.6875ZM16.8667 14.4375H19.1667V15.75H15.3333V11.8125H16.8667V14.4375Z" fill="#2984E4"/>
</svg>
