<svg width="24" height="24" viewBox="0 0 24 24" fill="none" xmlns="http://www.w3.org/2000/svg">
<path d="M5.615 20C5.16833 20 4.78733 19.8427 4.472 19.528C4.15733 19.2133 4 18.8323 4 18.385V5.615C4 5.16833 4.15733 4.78733 4.472 4.472C4.78667 4.15733 5.16767 4 5.615 4H10.315C10.2243 3.49 10.3467 3.029 10.682 2.617C11.0173 2.20567 11.4567 2 12 2C12.5567 2 13.0027 2.20567 13.338 2.617C13.6727 3.029 13.7883 3.49 13.685 4H18.385C18.8317 4 19.2127 4.15733 19.528 4.472C19.8427 4.78667 20 5.16767 20 5.615V18.385C20 18.8317 19.8427 19.2127 19.528 19.528C19.2133 19.8427 18.8323 20 18.385 20H5.615ZM5.615 19H18.385C18.5383 19 18.6793 18.936 18.808 18.808C18.936 18.6793 19 18.5383 19 18.385V5.615C19 5.46167 18.936 5.32067 18.808 5.192C18.6793 5.064 18.5383 5 18.385 5H5.615C5.46167 5 5.32067 5.064 5.192 5.192C5.064 5.32067 5 5.46167 5 5.615V18.385C5 18.5383 5.064 18.6793 5.192 18.808C5.32067 18.936 5.46167 19 5.615 19ZM7.5 16.27H13.5V15.27H7.5V16.27ZM7.5 12.5H16.5V11.5H7.5V12.5ZM7.5 8.73H16.5V7.73H7.5V8.73ZM12 4.443C12.2167 4.443 12.3957 4.37233 12.537 4.231C12.6783 4.08967 12.7493 3.91033 12.75 3.693C12.75 3.47633 12.679 3.29733 12.537 3.156C12.395 3.01467 12.216 2.94333 12 2.942C11.7833 2.942 11.6043 3.013 11.463 3.155C11.3217 3.297 11.2507 3.476 11.25 3.692C11.25 3.90867 11.321 4.088 11.463 4.23C11.605 4.372 11.784 4.44367 12 4.443Z" fill="#2984E4"/>
</svg>
