<svg width="28" height="30" viewBox="0 0 28 30" fill="none" xmlns="http://www.w3.org/2000/svg">
<g id="fluent:people-24-regular">
<path id="Vector" d="M6.27881 9.83342C6.27881 9.01843 6.5795 8.23682 7.11473 7.66053C7.64996 7.08425 8.37588 6.7605 9.13281 6.7605C9.88974 6.7605 10.6157 7.08425 11.1509 7.66053C11.6861 8.23682 11.9868 9.01843 11.9868 9.83342C11.9868 10.6484 11.6861 11.43 11.1509 12.0063C10.6157 12.5826 9.88974 12.9063 9.13281 12.9063C8.37588 12.9063 7.64996 12.5826 7.11473 12.0063C6.5795 11.43 6.27881 10.6484 6.27881 9.83342ZM9.13281 4.91675C7.92173 4.91675 6.76024 5.43475 5.90388 6.35681C5.04751 7.27886 4.56641 8.52943 4.56641 9.83342C4.56641 11.1374 5.04751 12.388 5.90388 13.31C6.76024 14.2321 7.92173 14.7501 9.13281 14.7501C10.3439 14.7501 11.5054 14.2321 12.3617 13.31C13.2181 12.388 13.6992 11.1374 13.6992 9.83342C13.6992 8.52943 13.2181 7.27886 12.3617 6.35681C11.5054 5.43475 10.3439 4.91675 9.13281 4.91675ZM17.6948 11.0626C17.6948 10.5736 17.8752 10.1046 18.1964 9.75885C18.5175 9.41308 18.9531 9.21883 19.4072 9.21883C19.8614 9.21883 20.2969 9.41308 20.6181 9.75885C20.9392 10.1046 21.1196 10.5736 21.1196 11.0626C21.1196 11.5516 20.9392 12.0205 20.6181 12.3663C20.2969 12.7121 19.8614 12.9063 19.4072 12.9063C18.9531 12.9063 18.5175 12.7121 18.1964 12.3663C17.8752 12.0205 17.6948 11.5516 17.6948 11.0626ZM19.4072 7.37508C18.4989 7.37508 17.6278 7.76359 16.9855 8.45513C16.3432 9.14667 15.9824 10.0846 15.9824 11.0626C15.9824 12.0406 16.3432 12.9785 16.9855 13.67C17.6278 14.3616 18.4989 14.7501 19.4072 14.7501C20.3155 14.7501 21.1867 14.3616 21.8289 13.67C22.4712 12.9785 22.832 12.0406 22.832 11.0626C22.832 10.0846 22.4712 9.14667 21.8289 8.45513C21.1867 7.76359 20.3155 7.37508 19.4072 7.37508ZM16.2655 23.401C17.0681 23.7513 18.0967 23.9688 19.4084 23.9688C22.0135 23.9688 23.5021 23.1121 24.3138 22.0538C24.7077 21.54 24.9075 21.0213 25.0102 20.6243C25.0688 20.3942 25.1043 20.1581 25.1164 19.92V19.8868C25.1164 19.535 25.052 19.1868 24.927 18.8618C24.802 18.5369 24.6188 18.2416 24.3878 17.9929C24.1568 17.7442 23.8826 17.5469 23.5808 17.4123C23.279 17.2777 22.9555 17.2084 22.6288 17.2084H16.1879C16.1559 17.2084 16.1251 17.2084 16.0943 17.2109C16.5441 17.7148 16.8706 18.3479 17.0258 19.0522H22.6288C23.0535 19.0522 23.3983 19.4197 23.404 19.8745C23.3958 19.9626 23.3806 20.0498 23.3583 20.1351C23.2878 20.4084 23.1632 20.6621 22.993 20.8787C22.5934 21.4023 21.655 22.1251 19.4084 22.1251C18.2896 22.1251 17.495 21.9456 16.9311 21.701C16.8078 22.1927 16.6046 22.7864 16.2655 23.401ZM4.85181 17.2084C4.17057 17.2084 3.51724 17.4998 3.03553 18.0184C2.55382 18.5371 2.2832 19.2406 2.2832 19.974V20.3157C2.28454 20.4012 2.28988 20.4865 2.29919 20.5714C2.39346 21.486 2.69879 22.3607 3.18735 23.1158C4.12118 24.5515 5.90436 25.8126 9.13281 25.8126C12.3613 25.8126 14.1444 24.5527 15.0783 23.1146C15.567 22.3596 15.8723 21.4848 15.9664 20.5702C15.9745 20.4856 15.9798 20.4007 15.9824 20.3157V19.974C15.9824 19.2406 15.7118 18.5371 15.2301 18.0184C14.7484 17.4998 14.0951 17.2084 13.4138 17.2084H4.85181ZM3.99561 20.2899V19.974C3.99561 19.7295 4.08581 19.4951 4.24638 19.3222C4.40695 19.1493 4.62473 19.0522 4.85181 19.0522H13.4138C13.6409 19.0522 13.8587 19.1493 14.0192 19.3222C14.1798 19.4951 14.27 19.7295 14.27 19.974V20.2899L14.262 20.3883C14.197 20.9882 13.9954 21.5615 13.6752 22.0575C13.1124 22.924 11.8978 23.9688 9.13281 23.9688C6.36785 23.9688 5.15319 22.924 4.58924 22.0575C4.26947 21.5614 4.06831 20.9881 4.0036 20.3883C4.00013 20.3556 3.99747 20.3228 3.99561 20.2899Z" fill="#2984E4"/>
</g>
</svg>
