<svg width="26" height="24" viewBox="0 0 26 24" fill="none" xmlns="http://www.w3.org/2000/svg">
<g id="fluent:news-28-regular">
<path id="Vector" d="M21.125 20.5713H4.87497C4.10413 20.5714 3.36249 20.2991 2.80219 19.8105C2.24189 19.3218 1.9054 18.6537 1.86176 17.9433L1.85712 17.7856V5.35704C1.85705 4.86836 2.05796 4.39788 2.41925 4.04068C2.78053 3.68348 3.27524 3.4662 3.8034 3.43275L3.9464 3.42847H18.3393C18.8687 3.42841 19.3784 3.61386 19.7653 3.94735C20.1523 4.28085 20.3877 4.7375 20.4239 5.22504L20.4285 5.35704V5.9999H22.0535C22.5829 5.99984 23.0926 6.18529 23.4796 6.51878C23.8666 6.85227 24.102 7.30893 24.1382 7.79647L24.1428 7.92847V17.7856C24.1429 18.4972 23.848 19.1817 23.3186 19.6989C22.7892 20.2162 22.0654 20.5268 21.2958 20.567L21.125 20.5713ZM4.87497 19.2856H21.125C21.5329 19.2856 21.926 19.1439 22.226 18.8887C22.526 18.6335 22.7111 18.2835 22.7444 17.9082L22.75 17.7856V7.92847C22.75 7.77312 22.689 7.62303 22.5784 7.50595C22.4678 7.38888 22.315 7.31274 22.1483 7.29161L22.0535 7.28561H20.4285V16.4999C20.4285 16.6552 20.3676 16.8053 20.257 16.9224C20.1464 17.0395 19.9936 17.1156 19.8268 17.1368L19.7321 17.1428C19.5638 17.1427 19.4012 17.0865 19.2744 16.9844C19.1476 16.8823 19.0651 16.7412 19.0422 16.5873L19.0357 16.4999V5.35704C19.0357 5.20169 18.9747 5.0516 18.8641 4.93453C18.7535 4.81745 18.6007 4.74131 18.434 4.72018L18.3393 4.71418H3.9464C3.77811 4.71419 3.61551 4.77045 3.48868 4.87255C3.36185 4.97466 3.27936 5.11571 3.25647 5.26961L3.24997 5.35704V17.7856C3.24999 18.1621 3.40335 18.5247 3.67961 18.8017C3.95586 19.0786 4.33482 19.2495 4.74126 19.2805L4.87497 19.2856ZM9.51412 11.1462C10.1548 11.1462 10.6748 11.6262 10.6748 12.2176V15.2142C10.6748 15.8056 10.1548 16.2856 9.51412 16.2856H6.26783C5.62712 16.2856 5.10712 15.8056 5.10712 15.2142V12.2176C5.10712 11.6262 5.62712 11.1462 6.26783 11.1462H9.51412ZM13.2321 14.9999H16.4784C16.6549 14.9999 16.8247 15.0618 16.9536 15.173C17.0826 15.2842 17.161 15.4364 17.173 15.5989C17.185 15.7614 17.1298 15.9221 17.0184 16.0484C16.9071 16.1748 16.7479 16.2574 16.5731 16.2796L16.4784 16.2856H13.2321C13.0557 16.2856 12.8858 16.2237 12.7569 16.1125C12.6279 16.0013 12.5495 15.8491 12.5375 15.6866C12.5255 15.5241 12.5807 15.3634 12.6921 15.2371C12.8034 15.1107 12.9626 15.0281 13.1374 15.0059L13.2321 14.9999ZM9.2829 12.4319H6.49997V14.9999H9.2829V12.4319ZM13.2321 11.1462H16.4784C16.6549 11.1462 16.8247 11.2081 16.9536 11.3193C17.0826 11.4305 17.161 11.5827 17.173 11.7452C17.185 11.9077 17.1298 12.0684 17.0184 12.1947C16.9071 12.3211 16.7479 12.4037 16.5731 12.4259L16.4784 12.4319H13.2321C13.0544 12.4336 12.8827 12.3725 12.7522 12.2611C12.6218 12.1497 12.5423 11.9965 12.5302 11.8329C12.5181 11.6692 12.5743 11.5075 12.6871 11.3807C12.8 11.254 12.9611 11.172 13.1374 11.1513L13.2321 11.1462ZM5.79983 7.28304H16.4784C16.6549 7.28309 16.8247 7.34496 16.9536 7.45616C17.0826 7.56735 17.161 7.71958 17.173 7.88208C17.185 8.04458 17.1298 8.20523 17.0184 8.33158C16.9071 8.45793 16.7479 8.54055 16.5731 8.56275L16.4784 8.56875H5.79983C5.62346 8.56849 5.45377 8.50646 5.32501 8.3952C5.19626 8.28393 5.11803 8.13172 5.10613 7.96929C5.09422 7.80685 5.14953 7.6463 5.26087 7.52004C5.37222 7.39378 5.53132 7.31123 5.70605 7.28904L5.79983 7.28304Z" fill="#2984E4"/>
</g>
</svg>
