<svg width="31" height="24" viewBox="0 0 31 24" fill="none" xmlns="http://www.w3.org/2000/svg">
<g id="mingcute:announcement-line" clip-path="url(#clip0_429_259)">
<g id="Group">
<path id="Vector" fill-rule="evenodd" clip-rule="evenodd" d="M24.5416 4.74092V7.99992C25.0505 7.99992 25.5544 8.07751 26.0245 8.22828C26.4947 8.37904 26.9219 8.60002 27.2817 8.8786C27.6415 9.15717 27.9269 9.48789 28.1217 9.85187C28.3164 10.2158 28.4166 10.606 28.4166 10.9999C28.4166 11.3939 28.3164 11.784 28.1217 12.148C27.9269 12.5119 27.6415 12.8427 27.2817 13.1212C26.9219 13.3998 26.4947 13.6208 26.0245 13.7716C25.5544 13.9223 25.0505 13.9999 24.5416 13.9999V16.9999C24.5416 18.6479 22.112 19.5889 20.4083 18.5999L17.7475 17.0539C16.3252 16.2283 14.6691 15.677 12.9166 15.4459V18.2899C12.9168 18.9437 12.6117 19.5754 12.0576 20.0687C11.5034 20.562 10.7377 20.8836 9.9014 20.9742C9.06514 21.0648 8.21475 20.9183 7.50699 20.5618C6.79924 20.2052 6.28183 19.6626 6.05015 19.0339L4.02223 13.5379C3.29246 12.8707 2.81754 12.0591 2.65085 11.1944C2.48416 10.3297 2.63231 9.44615 3.07865 8.64306C3.52499 7.83996 4.25181 7.14916 5.17743 6.64831C6.10305 6.14747 7.19077 5.85643 8.31831 5.80792L12.2166 5.63992C14.1239 5.55775 15.9787 5.12625 17.6286 4.38092L20.6563 3.01292C22.3794 2.23592 24.5416 3.19692 24.5416 4.74092ZM7.27723 15.0779L8.53402 18.4849C8.59451 18.6498 8.73002 18.7922 8.91555 18.8858C9.10107 18.9794 9.32407 19.0179 9.54337 18.9941C9.76267 18.9704 9.96346 18.886 10.1087 18.7565C10.2538 18.6271 10.3336 18.4614 10.3333 18.2899V15.2799L8.31831 15.1929C7.96766 15.1779 7.61934 15.1394 7.27723 15.0779ZM21.9583 4.74092L18.9294 6.10992C17.0892 6.94036 15.0373 7.4502 12.9166 7.60392V13.4229C15.2249 13.6689 17.422 14.3659 19.2975 15.4539L21.9583 16.9999V4.74092ZM10.3333 7.72392L8.4604 7.80392C7.5891 7.84116 6.76749 8.12994 6.15776 8.61324C5.54803 9.09654 5.19449 9.73925 5.16691 10.4145C5.13934 11.0897 5.43974 11.7484 6.00881 12.2606C6.57789 12.7728 7.3743 13.1011 8.24081 13.1809L8.4604 13.1959L10.3333 13.2759V7.72392ZM24.5416 9.99992V11.9999C24.8709 11.9996 25.1875 11.902 25.4269 11.7271C25.6663 11.5521 25.8104 11.313 25.8297 11.0585C25.849 10.8041 25.742 10.5535 25.5307 10.3581C25.3194 10.1626 25.0197 10.037 24.6928 10.0069L24.5416 9.99992Z" fill="#2984E4"/>
</g>
</g>
<defs>
<clipPath id="clip0_429_259">
<rect width="31" height="24" fill="white"/>
</clipPath>
</defs>
</svg>
