<svg width="20" height="20" viewBox="0 0 20 20" fill="none" xmlns="http://www.w3.org/2000/svg">
<g id="streamline:interface-dashboard-layout-square-app-application-dashboard-home-layout-square" clip-path="url(#clip0_429_280)">
<g id="Group">
<path id="Vector" d="M6.42858 0.714355H2.14287C1.35389 0.714355 0.714294 1.35395 0.714294 2.14293V6.42864C0.714294 7.21762 1.35389 7.85721 2.14287 7.85721H6.42858C7.21756 7.85721 7.85715 7.21762 7.85715 6.42864V2.14293C7.85715 1.35395 7.21756 0.714355 6.42858 0.714355Z" stroke="#2984E4" stroke-linecap="round" stroke-linejoin="round"/>
<path id="Vector_2" d="M17.8572 0.714355H13.5715C12.7825 0.714355 12.1429 1.35395 12.1429 2.14293V6.42864C12.1429 7.21762 12.7825 7.85721 13.5715 7.85721H17.8572C18.6461 7.85721 19.2857 7.21762 19.2857 6.42864V2.14293C19.2857 1.35395 18.6461 0.714355 17.8572 0.714355Z" stroke="#2984E4" stroke-linecap="round" stroke-linejoin="round"/>
<path id="Vector_3" d="M6.42858 12.1428H2.14287C1.35389 12.1428 0.714294 12.7824 0.714294 13.5714V17.8571C0.714294 18.6461 1.35389 19.2857 2.14287 19.2857H6.42858C7.21756 19.2857 7.85715 18.6461 7.85715 17.8571V13.5714C7.85715 12.7824 7.21756 12.1428 6.42858 12.1428Z" stroke="#2984E4" stroke-linecap="round" stroke-linejoin="round"/>
<path id="Vector_4" d="M17.8572 12.1428H13.5715C12.7825 12.1428 12.1429 12.7824 12.1429 13.5714V17.8571C12.1429 18.6461 12.7825 19.2857 13.5715 19.2857H17.8572C18.6461 19.2857 19.2857 18.6461 19.2857 17.8571V13.5714C19.2857 12.7824 18.6461 12.1428 17.8572 12.1428Z" stroke="#2984E4" stroke-linecap="round" stroke-linejoin="round"/>
</g>
</g>
<defs>
<clipPath id="clip0_429_280">
<rect width="20" height="20" fill="white"/>
</clipPath>
</defs>
</svg>
