<svg width="28" height="24" viewBox="0 0 28 24" fill="none" xmlns="http://www.w3.org/2000/svg">
<g id="material-symbols:breaking-news-outline">
<path id="Vector" d="M8.16665 17C8.4972 17 8.77448 16.904 8.99848 16.712C9.22248 16.52 9.33409 16.2827 9.33331 16C9.33331 15.7167 9.22131 15.479 8.99731 15.287C8.77331 15.095 8.49643 14.9993 8.16665 15C7.83609 15 7.55882 15.096 7.33482 15.288C7.11082 15.48 6.9992 15.7173 6.99998 16C6.99998 16.2833 7.11198 16.521 7.33598 16.713C7.55998 16.905 7.83687 17.0007 8.16665 17ZM6.99998 13H9.33331V7H6.99998V13ZM12.8333 17H21V15H12.8333V17ZM12.8333 13H21V11H12.8333V13ZM12.8333 9H21V7H12.8333V9ZM4.66665 21C4.02498 21 3.47548 20.804 3.01815 20.412C2.56081 20.02 2.33254 19.5493 2.33331 19V5C2.33331 4.45 2.56198 3.979 3.01932 3.587C3.47665 3.195 4.02576 2.99934 4.66665 3H23.3333C23.975 3 24.5245 3.196 24.9818 3.588C25.4391 3.98 25.6674 4.45067 25.6666 5V19C25.6666 19.55 25.438 20.021 24.9806 20.413C24.5233 20.805 23.9742 21.0007 23.3333 21H4.66665ZM4.66665 19H23.3333V5H4.66665V19Z" fill="#2984E4"/>
</g>
</svg>
