<svg width="7" height="12" viewBox="0 0 7 12" fill="none" xmlns="http://www.w3.org/2000/svg">
<path id="Vector" d="M0.240319 0.234846C0.31599 0.160403 0.405884 0.101341 0.504853 0.061042C0.603821 0.0207433 0.70992 0 0.81707 0C0.924221 0 1.03032 0.0207433 1.12929 0.061042C1.22826 0.101341 1.31815 0.160403 1.39382 0.234846L6.80942 5.54907C6.86983 5.60823 6.91776 5.67851 6.95046 5.75587C6.98317 5.83323 7 5.91616 7 5.99992C7 6.08367 6.98317 6.1666 6.95046 6.24396C6.91776 6.32132 6.86983 6.3916 6.80942 6.45076L1.39382 11.765C1.07449 12.0783 0.55965 12.0783 0.240319 11.765C-0.0790124 11.4516 -0.0790124 10.9464 0.240319 10.6331L4.9586 5.99672L0.233803 1.36036C-0.0790114 1.0534 -0.0790124 0.541804 0.240319 0.234846Z" fill="white"/>
</svg>
